<svg xmlns="http://www.w3.org/2000/svg" viewBox="0 0 640 640"><!--! Font Awesome Free 7.3.1 by @fontawesome - https://fontawesome.com License - https://fontawesome.com/license/free (Icons: CC BY 4.0, Fonts: SIL OFL 1.1, Code: MIT License) Copyright 2026 Fonticons, Inc. --><path fill="currentColor" d="M320 64C178.6 64 64 178.6 64 320C64 461.4 178.6 576 320 576C461.4 576 576 461.4 576 320C576 178.6 461.4 64 320 64zM316.3 181C298 181 283.2 166.2 283.2 148C283.1 129.7 297.9 114.8 316.2 114.8C334.5 114.8 349.3 129.6 349.4 147.9C349.4 166.1 334.6 181 316.3 181zM459.6 221.8L361.1 234.2L361.2 332.8L408.9 492.1C409.5 494.5 409.6 496.9 409.3 499.4C409 501.9 408.1 504.1 406.9 506.2C405.7 508.3 404 510.1 402 511.6C400 513.1 397.8 514.1 395.4 514.7C385.5 517.2 375.3 511.7 372.8 501.7L323.9 356.7L308.9 356.7L263.9 504.7C260.1 514.4 249.4 518.8 239.7 515C230.1 511.3 224.3 500.4 228.1 490.7L269.4 334.4L269.4 234.2L178.6 221.9C169.3 221.1 163 213 163.7 203.6C164.4 194.2 172.9 187.3 182.2 188L292.5 197.5L340.8 197.5L458.2 187.8C460.4 187.7 462.6 188.1 464.7 188.8C466.8 189.5 468.7 190.7 470.3 192.3C471.9 193.9 473.3 195.6 474.2 197.7C475.1 199.8 475.6 201.9 475.7 204.1C476.1 213.4 468.9 221.3 459.6 221.7L459.6 221.7z"/></svg>