<svg xmlns="http://www.w3.org/2000/svg" viewBox="0 0 640 640"><!--! Font Awesome Free 7.3.1 by @fontawesome - https://fontawesome.com License - https://fontawesome.com/license/free (Icons: CC BY 4.0, Fonts: SIL OFL 1.1, Code: MIT License) Copyright 2026 Fonticons, Inc. --><path fill="currentColor" d="M319.5 106.2C377.7 106.2 421.1 126.6 451 150.8C463.5 155.8 474 162.5 482.4 171.1C500.5 189.6 506.6 214.5 506.6 242.9C506.6 250.8 506.3 258.5 505.5 266.1C510.4 276 515.7 289.3 519.3 298.4C546.1 306.2 566.9 335.1 574.8 355.1C575.7 357.3 576.1 359.6 576.1 362L576.1 418.7C576.1 421.4 575.7 424.1 574.3 426.4C555.9 458.3 449.4 533.5 320.1 533.5C190.8 533.5 84.1 458.3 65.8 426.4C64.5 424.1 64 421.4 64 418.7L64 362C64 359.7 64.4 357.3 65.2 355.1C73.1 335.2 93.9 306.2 120.8 298.4C124.4 289.3 129.6 275.9 134.6 266.1C133.8 258.6 133.5 250.8 133.5 242.9C133.5 214.5 139.5 189.6 157.7 171.1C166.2 162.4 176.7 155.8 189.1 150.8C218.9 126.6 261.4 106.2 319.6 106.2zM316.3 298.6C314 302.4 311.5 306 308.7 309.4C292.3 329.6 267.8 341.2 233.9 341.2C197.1 341.2 170.2 333.5 153.2 314.4C152.3 313.4 151.5 312.3 151.4 312.2L149.3 314.4L149.3 454.8C179.9 471.4 245.6 501.3 319.9 501.3C394.2 501.3 459.9 471.5 490.5 454.8L490.5 314.4L488.4 312.2C488.3 312.3 487.6 313.2 486.6 314.4C469.7 333.6 442.7 341.2 405.9 341.2C372 341.2 347.5 329.6 331.1 309.4C328.3 306 325.8 302.3 323.6 298.6C322.4 298.6 317.5 298.6 316.2 298.6zM266.7 368C278.5 368 288 377.5 288 389.3L288 432C288 443.8 278.5 453.3 266.7 453.3C254.9 453.3 245.4 443.8 245.4 432L245.4 389.3C245.4 377.5 254.9 368 266.7 368zM373.3 368C385.1 368 394.6 377.5 394.6 389.3L394.6 432C394.6 443.8 385.1 453.3 373.3 453.3C361.5 453.3 352 443.7 352 431.9L352 389.2C352 377.4 361.5 367.9 373.3 367.9zM240.7 171.7C208.6 175.2 190.7 183.1 180.5 193.5C170.6 203.6 165.5 218.7 165.5 243C165.5 268.8 169.2 284.1 177.4 293.3C185.2 302.1 200.5 309.3 234.1 309.3C259.9 309.3 274.6 300.9 284.1 289.3C294.2 276.8 299.9 258.6 302.8 236.1C303.7 229 304.1 222.7 304.1 217L304.1 216.5C304.1 200.1 300.5 189.4 294.8 182.9C287.5 174.6 272.5 168.2 240.8 171.6zM399.4 171.7C367.7 168.3 352.7 174.7 345.4 183C339.7 189.6 336.1 200.2 336.1 216.6L336.1 217.1C336.1 222.8 336.5 229.1 337.4 236.2C340.3 258.7 346 277 356.1 289.4C365.5 301 380.3 309.4 406.1 309.4C439.7 309.4 455 302.2 462.8 293.4C471 284.1 474.7 268.9 474.7 243.1C474.7 218.8 469.5 203.7 459.7 193.6C449.5 183.2 431.6 175.2 399.5 171.8z"/></svg>