<svg xmlns="http://www.w3.org/2000/svg" viewBox="0 0 640 640"><!--! Font Awesome Free 7.3.1 by @fontawesome - https://fontawesome.com License - https://fontawesome.com/license/free (Icons: CC BY 4.0, Fonts: SIL OFL 1.1, Code: MIT License) Copyright 2026 Fonticons, Inc. --><path fill="currentColor" d="M333.2 64.3C468.5 71.2 576 183 576 320L575.7 333.2C568.8 468.5 456.9 576 320 576L306.8 575.7C176 569 71 464.1 64.3 333.2L64 320C64 178.6 178.6 64 320 64L333.2 64.3zM320 80C187.5 80 80 187.5 80 320C80 452.5 187.5 560 320 560C452.5 560 560 452.5 560 320C560 187.5 452.5 80 320 80zM320 551.9C191.9 551.9 88.1 448.1 88.1 320C88.1 191.9 191.9 88.1 320 88.1C448.1 88.1 551.9 191.9 551.9 320C551.9 448.1 448.1 551.9 320 551.9zM263.2 104.8C201 136.6 175.6 212.2 205.8 275.1C206.1 275.7 206.4 276.3 206.7 276.9C206.9 277.2 207 277.4 207.1 277.7C207.2 277.9 207.2 278 207.3 278.2C207.5 278.4 207.5 278.4 207.8 278.4L211.9 278.4C214.4 278.5 216.9 278.6 219.4 278.8C266.9 283.3 305.5 319.3 313.2 366.4C314.9 376.9 315 387.6 313.5 398.1C310.7 417.9 302.3 436.5 289.2 451.8C281.7 460.5 272.9 467.9 263 473.8C243.3 485.4 220.3 490.3 197.6 487.7C193.5 487.2 189.4 486.6 185.4 485.6C182.8 485 180.2 484.3 177.6 483.4C189.1 488.5 201.2 491.9 213.7 493.4C225.3 494.8 237.1 494.7 248.6 493C269.3 489.9 289 481.8 305.8 469.3C318.2 460.2 328.8 448.9 337.2 436.1C337.6 435.5 338 435 338.3 434.4C338.5 434.2 338.8 433.8 338.7 433.6C338.5 433.2 338.4 432.9 338.1 432.6C337.4 431.3 336.7 430 336.1 428.6C334.8 425.9 333.6 423.1 332.6 420.4C330.4 414.7 328.8 408.8 327.7 402.8C325.3 389.9 325.3 376.7 327.7 363.8C329.8 352.9 333.6 342.3 339 332.6C357.3 299.3 392.2 278.6 430.1 278.4C432.7 278.4 435.2 278.4 437.8 278.6C440.3 278.8 442.8 279 445.2 279.4C447.6 279.7 450 280.1 452.5 280.6C454.9 281.1 457.2 281.7 459.6 282.4C461.9 283 464.1 283.8 466.3 284.6C468.6 285.4 470.8 286.3 473 287.3C475.3 288.3 477.4 289.4 479.7 290.5C481.9 291.7 484 292.9 486.1 294.1C488 295.3 490 296.6 491.8 297.9C493.7 299.3 495.6 300.7 497.4 302.2C499.3 303.7 501.1 305.4 502.9 307C504.8 308.8 506.6 310.6 508.4 312.6C510.1 314.5 511.8 316.5 513.5 318.5C515.3 320.8 517 323.1 518.6 325.6C520.2 328.1 521.7 330.6 523.2 333.2C525.2 336.8 526.9 340.6 528.5 344.5C530.2 348.7 531.6 353 532.7 357.3C529.6 334 520.2 312 505.5 293.6C494.7 280.1 481.2 268.9 466 260.7C450.4 252.3 433.2 247.2 415.5 245.8C413.9 245.6 412.4 245.5 410.9 245.4C382.1 295.6 317.9 313 267.7 284.2C266.8 283.7 265.8 283.1 265 282.5C256.2 277.1 248.2 270.4 241.4 262.6C223.3 242.2 213.9 215.5 215.1 188.3C215.3 185.2 215.5 182.2 215.9 179.2C216.3 176.2 216.8 173.3 217.5 170.3C218.2 167.3 219 164.3 219.9 161.3C220.8 158.5 221.8 155.6 223 152.8C224.2 149.9 225.5 147.1 227 144.3C228.5 141.4 230.2 138.6 232 135.8C233.6 133.3 235.4 130.8 237.2 128.4C239.3 125.8 241.4 123.3 243.7 120.9C246 118.5 248.4 116.2 250.9 114C253.4 111.7 256.1 109.7 258.9 107.7C260.3 106.7 261.7 105.7 263.2 104.8z"/></svg>