<svg xmlns="http://www.w3.org/2000/svg" viewBox="0 0 640 640"><!--! Font Awesome Free 7.3.1 by @fontawesome - https://fontawesome.com License - https://fontawesome.com/license/free (Icons: CC BY 4.0, Fonts: SIL OFL 1.1, Code: MIT License) Copyright 2026 Fonticons, Inc. --><path fill="currentColor" d="M106.5 99.1L123 538.1C123.5 552 134.6 563.2 148.5 563.8L505.5 579.8C505.9 579.8 506.3 579.8 506.7 579.8C521.5 579.8 533.4 567.8 533.4 553.1L533.4 74.7C533.4 74.1 533.4 73.6 533.3 73C532.4 58.3 519.7 47.1 504.9 48L475.5 49.8L477.6 111.2C477.7 113.4 476 115.2 473.8 115.3C472.9 115.3 471.9 115 471.2 114.4L451.6 99L428.2 116.7C426.4 118 423.9 117.7 422.6 115.9C422 115.2 421.8 114.3 421.8 113.3L424.3 53.1L131.6 71.4C117.1 72.3 106 84.6 106.5 99.1zM435.7 251.8C426.3 259.1 356.2 264.1 356.2 253.7C357.7 214 339.9 212.3 330 212.3C320.6 212.3 304.8 215.1 304.8 236.4C304.8 258.1 327.9 270.3 355 284.7C393.5 305.1 440.1 329.8 440.1 391.9C440.1 451.5 391.7 484.4 330 484.4C266.3 484.4 210.6 458.6 216.9 369.3C219.4 358.8 300.3 361.3 300.3 369.3C299.3 406.2 307.7 417 328.9 417C345.2 417 352.6 408 352.6 392.9C352.6 370 328.5 356.5 300.9 341C263.4 320 219.3 295.2 219.3 238.4C219.3 181.7 258.3 143.9 327.9 143.9C397.5 143.9 435.5 181.1 435.5 252z"/></svg>