<svg xmlns="http://www.w3.org/2000/svg" viewBox="0 0 640 640"><!--! Font Awesome Free 7.3.1 by @fontawesome - https://fontawesome.com License - https://fontawesome.com/license/free (Icons: CC BY 4.0, Fonts: SIL OFL 1.1, Code: MIT License) Copyright 2026 Fonticons, Inc. --><path fill="currentColor" d="M381.8 82.7C395 82.7 380.4 80.5 544.6 139.7C545.3 140.1 545.7 140.1 546.4 140.5C564 147.8 576 165 576 184.7L576 451.7C576 471.4 563.9 488.6 546.4 495.9C546 495.9 545.3 496.3 543.5 497L399 548.6C393.5 550.8 387.7 551.9 381.8 551.9C365 551.9 350 543.1 341.6 529.9C341.1 529.4 335.4 519.6 331.4 513.8C330.3 512.3 329.6 510.9 328.5 509.4L156.5 219.5C145.9 201.2 128 189.8 108.2 186.9L200.4 141.9L200.8 141.5C207 138.6 214.3 136.7 221.6 136.7C237.7 136.7 251.9 144.7 260.7 156.8L260.7 157.2L429.7 395.3L429.7 229.3L393.1 280.9L308.2 161.3L340 106.4C340.7 105.7 341.1 105 341.4 104.6C349.8 91.4 364.8 82.7 381.6 82.7zM264.8 473.6L260.8 479.1L260.8 479.4C252 491.5 237.8 499.5 221.7 499.5C214.4 499.5 207.1 497.7 200.9 494.8L200.5 494.4L107.6 449.4C127.7 446.5 145.6 435.5 156.6 416.8L173.8 388.3L194.3 353.9L264.9 473.5zM88.1 223.1C99.8 220.2 115.9 222.4 125 238.1L172.9 318.2L125 398.3C118.1 410.4 107.5 414.8 97.6 414.8C94.3 414.8 91 414.1 88.1 413.3C76.4 410 64 400.1 64 381.5L64 254.9C64 236.3 76.4 226.4 88.1 223.1z"/></svg>