<svg xmlns="http://www.w3.org/2000/svg" viewBox="0 0 512 512"><!--! Font Awesome Free 7.3.1 by @fontawesome - https://fontawesome.com License - https://fontawesome.com/license/free (Icons: CC BY 4.0, Fonts: SIL OFL 1.1, Code: MIT License) Copyright 2026 Fonticons, Inc. --><path fill="currentColor" d="M269.2 .3C404.5 7.2 512 119 512 256l-.3 13.2C504.8 404.5 392.9 512 256 512l-13.2-.3C112 505 7 400.1 .3 269.2L0 256C0 114.6 114.6 0 256 0l13.2 .3zM256 16a240 240 0 1 0 0 480 240 240 0 1 0 0-480zm0 471.9a231.9 231.9 0 1 1 0-463.8 231.9 231.9 0 1 1 0 463.8zM199.2 40.8c-62.2 31.8-87.6 107.4-57.4 170.3 .3 .6 .6 1.2 .9 1.8 .2 .3 .3 .5 .4 .8 .1 .2 .1 .3 .2 .5 .2 .2 .2 .2 .5 .2l4.1 0c2.5 .1 5 .2 7.5 .4 47.5 4.5 86.1 40.5 93.8 87.6 1.7 10.5 1.8 21.2 .3 31.7-2.8 19.8-11.2 38.4-24.3 53.7-7.5 8.7-16.3 16.1-26.2 22-19.7 11.6-42.7 16.5-65.4 13.9-4.1-.5-8.2-1.1-12.2-2.1-2.6-.6-5.2-1.3-7.8-2.2 11.5 5.1 23.6 8.5 36.1 10 11.6 1.4 23.4 1.3 34.9-.4 20.7-3.1 40.4-11.2 57.2-23.7 12.4-9.1 23-20.4 31.4-33.2 .4-.6 .8-1.1 1.1-1.7 .2-.2 .5-.6 .4-.8-.2-.4-.3-.7-.6-1-.7-1.3-1.4-2.6-2-4-1.3-2.7-2.5-5.5-3.5-8.2-2.2-5.7-3.8-11.6-4.9-17.6-2.4-12.9-2.4-26.1 0-39 2.1-10.9 5.9-21.5 11.3-31.2 18.3-33.3 53.2-54 91.1-54.2 2.6 0 5.1 0 7.7 .2 2.5 .2 5 .4 7.4 .8 2.4 .3 4.8 .7 7.3 1.2 2.4 .5 4.7 1.1 7.1 1.8 2.3 .6 4.5 1.4 6.7 2.2 2.3 .8 4.5 1.7 6.7 2.7 2.3 1 4.4 2.1 6.7 3.2 2.2 1.2 4.3 2.4 6.4 3.6 1.9 1.2 3.9 2.5 5.7 3.8 1.9 1.4 3.8 2.8 5.6 4.3 1.9 1.5 3.7 3.2 5.5 4.8 1.9 1.8 3.7 3.6 5.5 5.6 1.7 1.9 3.4 3.9 5.1 5.9 1.8 2.3 3.5 4.6 5.1 7.1 1.6 2.5 3.1 5 4.6 7.6 2 3.6 3.7 7.4 5.3 11.3 1.7 4.2 3.1 8.5 4.2 12.8-3.1-23.3-12.5-45.3-27.2-63.7-10.8-13.5-24.3-24.7-39.5-32.9-15.6-8.4-32.8-13.5-50.5-14.9-1.6-.2-3.1-.3-4.6-.4-28.8 50.2-93 67.6-143.2 38.8-.9-.5-1.9-1.1-2.7-1.7-8.8-5.4-16.8-12.1-23.6-19.9-18.1-20.4-27.5-47.1-26.3-74.3 .2-3.1 .4-6.1 .8-9.1s.9-5.9 1.6-8.9c.7-3 1.5-6 2.4-9 .9-2.8 1.9-5.7 3.1-8.5 1.2-2.9 2.5-5.7 4-8.5 1.5-2.9 3.2-5.7 5-8.5 1.6-2.5 3.4-5 5.2-7.4 2.1-2.6 4.2-5.1 6.5-7.5 2.3-2.4 4.7-4.7 7.2-6.9 2.5-2.3 5.2-4.3 8-6.3 1.4-1 2.8-2 4.3-2.9z"/></svg>